<?xml version="1.0" encoding="utf-8"?>
<!-- Generator: Adobe Illustrator 25.0.0, SVG Export Plug-In . SVG Version: 6.00 Build 0)  -->
<svg version="1.1" id="Layer_1" xmlns="http://www.w3.org/2000/svg" xmlns:xlink="http://www.w3.org/1999/xlink" x="0px" y="0px"
	 viewBox="0 0 332.1 259.2" style="enable-background:new 0 0 332.1 259.2;" xml:space="preserve">
<style type="text/css">
	.st0{fill:#B13967;}
</style>
<path class="st0" d="M273.9,48.5c-14.4,2.5-27.3,7.6-39.3,14.3c-38,21.4-66.9,59.2-104.9,80.6c-9.5,5.4-19.7,9.7-30.6,12.5
	c-1.2,0.3-2.3,0.8-3.4,1.4c-5.3,3-8,9.1-5.3,14l46.9,83.3c1.9,3.3,5.9,5.2,10.2,4.5c14.4-2.5,27.3-7.6,39.3-14.3
	c38-21.4,66.9-59.2,104.9-80.6c9.5-5.4,19.6-9.7,30.6-12.5c1.2-0.3,2.3-0.8,3.4-1.4c5.3-3,8-9.1,5.3-14l-46.9-83.3
	C282.2,49.6,278.2,47.7,273.9,48.5z M108.4,168.5c7-2.2,13.8-5.2,20.7-8.5c2.5,8.7-2.2,19-11.7,24.4L108.4,168.5z M150.5,243.4
	l-7.1-12.5c10.6-6,23.2-3.6,28.7,5.1C165.2,239.3,157.8,241.8,150.5,243.4z M224.9,179c-13.6,7.7-31.1,2.6-38.9-11.3
	c-7.8-13.9-3.1-31.4,10.5-39.1s31.1-2.6,38.9,11.3C243.2,153.8,238.5,171.3,224.9,179z M313,139c-6.1,1.9-12,4.4-18,7.2
	c-2.1-7.9,1.7-16.8,9.5-22.4L313,139z M278.1,77c-10.1,4.3-21.3,1.7-26.3-6.5c6.4-2.8,12.7-5,19.1-6.4L278.1,77z"/>
<path class="st0" d="M102.1,0.9c-10.8,0-20.5,2.3-28.1,6.6c-7.6,4.3-13.9,11.3-13.9,20.6v27.2c0,0.9,0.3,1.7,0.4,2.6
	c-5.6-1.6-11.8-2.6-18.4-2.6c-10.8,0-20.5,2.3-28.1,6.6C6.3,66.3,0,73.3,0,82.6v54.5c0,9.3,6.3,16.3,13.9,20.6
	c7.6,4.3,17.4,6.6,28.1,6.6c10.8,0,20.5-2.3,28.1-6.6c7.6-4.3,13.9-11.3,13.9-20.6v-2.8c5.5,1.7,11.5,2.8,18,2.8
	c10.8,0,20.5-2.3,28.1-6.6c7.6-4.3,13.9-11.3,13.9-20.6V28.2c0-9.3-6.3-16.3-13.9-20.6C122.6,3.2,112.9,0.9,102.1,0.9z M102.1,14.5
	c9.1,0,17.3,2.2,22.7,5.3c5.4,3.1,7.3,6.3,7.3,8.3c0,2-1.9,5.2-7.3,8.3c-5.4,3.1-13.6,5.3-22.7,5.3s-17.3-2.2-22.7-5.3
	c-5.4-3.1-7.3-6.3-7.3-8.3c0-2,1.9-5.2,7.3-8.3C84.8,16.8,92.9,14.5,102.1,14.5z M72.1,47.5c0.6,0.4,1.2,0.9,1.9,1.3
	c7.6,4.3,17.4,6.6,28.1,6.6c10.8,0,20.5-2.3,28.1-6.6c0.7-0.4,1.2-0.9,1.9-1.3v7.9c0,2-1.9,5.2-7.3,8.3c-5.4,3.1-13.6,5.3-22.7,5.3
	s-17.3-2.2-22.7-5.3c-5.4-3.1-7.3-6.3-7.3-8.3V47.5z M42,69c9.1,0,17.3,2.2,22.7,5.3c5.4,3.1,7.3,6.3,7.3,8.3s-1.9,5.2-7.3,8.3
	C59.3,94,51.2,96.3,42,96.3S24.7,94,19.3,90.9c-5.4-3.1-7.3-6.3-7.3-8.3s1.9-5.2,7.3-8.3C24.7,71.3,32.9,69,42,69z M132.1,74.8v7.9
	c0,2-1.9,5.2-7.3,8.3c-5.4,3.1-13.6,5.3-22.7,5.3c-6.8,0-13-1.3-18-3.2V82.6c0-0.9-0.3-1.7-0.4-2.6c5.6,1.6,11.8,2.6,18.4,2.6
	c10.8,0,20.5-2.3,28.1-6.6C130.9,75.7,131.5,75.2,132.1,74.8L132.1,74.8z M12,102c0.6,0.4,1.2,0.9,1.9,1.3
	c7.6,4.3,17.4,6.6,28.1,6.6c10.8,0,20.5-2.3,28.1-6.6c0.7-0.4,1.2-0.9,1.9-1.3v7.9c0,2-1.9,5.2-7.3,8.3c-5.4,3.1-13.6,5.3-22.7,5.3
	s-17.3-2.2-22.7-5.3c-5.4-3.1-7.3-6.3-7.3-8.3V102z M132.1,102v7.9c0,2-1.9,5.2-7.3,8.3c-5.4,3.1-13.6,5.3-22.7,5.3
	c-6.8,0-13-1.1-18-3v-13.2c5.5,1.6,11.5,2.6,18,2.6c10.8,0,20.5-2.3,28.1-6.6C130.9,102.9,131.5,102.4,132.1,102z M12,129.3
	c0.6,0.4,1.2,0.9,1.9,1.3c7.6,4.3,17.4,6.6,28.1,6.6c10.8,0,20.5-2.3,28.1-6.6c0.7-0.4,1.2-0.9,1.9-1.3v7.9c0,2-1.9,5.2-7.3,8.3
	c-5.4,3.1-13.6,5.3-22.7,5.3s-17.3-2.2-22.7-5.3c-5.4-3.1-7.3-6.3-7.3-8.3V129.3z"/>
</svg>
